<?xml version="1.0" encoding="utf-8"?>
<!-- Generator: Adobe Illustrator 19.1.0, SVG Export Plug-In . SVG Version: 6.00 Build 0)  -->
<svg version="1.1" id="Layer_1" xmlns="http://www.w3.org/2000/svg" xmlns:xlink="http://www.w3.org/1999/xlink" x="0px" y="0px"
	 viewBox="0 0 230 95" style="enable-background:new 0 0 230 95;" xml:space="preserve">
<style type="text/css">
	.st0{fill:#FF4C00;}
	.st1{fill:none;stroke:#FFFFFF;stroke-width:2;}
	.st2{fill:#005CB9;}
	.st3{fill:none;}
	.st4{fill:#FFFFFF;}
	.st5{fill:none;stroke:#005CB9;}
</style>
<g>
	<g>
		<path class="st0" d="M52.7,81c0-1.8,0.5-3.1,1.4-4.1c0.9-1,2.2-1.5,3.7-1.5c1,0,1.9,0.2,2.6,0.7c0.8,0.5,1.4,1.1,1.8,2
			c0.4,0.8,0.6,1.8,0.6,2.8c0,1.1-0.2,2-0.7,2.9c-0.4,0.8-1,1.5-1.8,1.9c-0.8,0.4-1.7,0.7-2.6,0.7c-1,0-1.9-0.2-2.7-0.7
			c-0.8-0.5-1.4-1.1-1.8-2C52.9,82.8,52.7,81.9,52.7,81z M54.2,81c0,1.3,0.3,2.3,1,3c0.7,0.7,1.5,1.1,2.6,1.1c1.1,0,1.9-0.4,2.6-1.1
			c0.7-0.7,1-1.8,1-3.2c0-0.9-0.1-1.6-0.4-2.3c-0.3-0.6-0.7-1.1-1.3-1.5c-0.6-0.4-1.2-0.5-1.9-0.5c-1,0-1.8,0.3-2.6,1
			C54.5,78.3,54.2,79.4,54.2,81z"/>
		<path class="st0" d="M64.5,86.2v-7.7h1.2v1.1c0.6-0.8,1.4-1.3,2.4-1.3c0.5,0,0.9,0.1,1.3,0.2c0.4,0.2,0.7,0.4,0.9,0.7
			c0.2,0.3,0.3,0.6,0.4,1c0,0.2,0.1,0.7,0.1,1.3v4.7h-1.3v-4.7c0-0.5-0.1-0.9-0.2-1.2c-0.1-0.3-0.3-0.5-0.5-0.6
			c-0.3-0.2-0.6-0.2-0.9-0.2c-0.6,0-1,0.2-1.4,0.5c-0.4,0.4-0.6,1-0.6,2v4.2H64.5z"/>
		<path class="st0" d="M77.8,83.4l1.3,0.2c-0.1,0.9-0.5,1.6-1.1,2.1c-0.6,0.5-1.3,0.7-2.1,0.7c-1.1,0-1.9-0.3-2.5-1
			c-0.6-0.7-1-1.7-1-3c0-0.8,0.1-1.6,0.4-2.2c0.3-0.6,0.7-1.1,1.3-1.4c0.6-0.3,1.2-0.5,1.8-0.5c0.8,0,1.5,0.2,2,0.6
			c0.5,0.4,0.9,1,1,1.8l-1.3,0.2c-0.1-0.5-0.3-0.9-0.6-1.2c-0.3-0.3-0.7-0.4-1.1-0.4c-0.7,0-1.2,0.2-1.6,0.7
			c-0.4,0.5-0.6,1.2-0.6,2.2c0,1,0.2,1.8,0.6,2.2c0.4,0.5,0.9,0.7,1.5,0.7c0.5,0,0.9-0.2,1.3-0.5C77.5,84.5,77.7,84,77.8,83.4z"/>
		<path class="st0" d="M79.7,82.3c0-1.4,0.4-2.5,1.2-3.2c0.7-0.6,1.5-0.9,2.4-0.9c1.1,0,1.9,0.3,2.6,1c0.7,0.7,1,1.6,1,2.9
			c0,1-0.1,1.8-0.4,2.3c-0.3,0.6-0.7,1-1.3,1.3c-0.6,0.3-1.2,0.5-1.9,0.5c-1.1,0-1.9-0.3-2.6-1C80,84.6,79.7,83.6,79.7,82.3z
			 M81,82.3c0,1,0.2,1.7,0.6,2.2c0.4,0.5,1,0.7,1.6,0.7c0.6,0,1.2-0.2,1.6-0.7c0.4-0.5,0.6-1.2,0.6-2.2c0-0.9-0.2-1.7-0.6-2.2
			c-0.4-0.5-1-0.7-1.6-0.7c-0.7,0-1.2,0.2-1.6,0.7C81.2,80.6,81,81.3,81,82.3z"/>
		<path class="st0" d="M88.4,86.2V75.6h1.3v10.6H88.4z"/>
		<path class="st0" d="M91.2,82.3c0-1.4,0.4-2.5,1.2-3.2c0.7-0.6,1.5-0.9,2.4-0.9c1.1,0,1.9,0.3,2.6,1c0.7,0.7,1,1.6,1,2.9
			c0,1-0.1,1.8-0.4,2.3c-0.3,0.6-0.7,1-1.3,1.3c-0.6,0.3-1.2,0.5-1.9,0.5c-1.1,0-1.9-0.3-2.6-1C91.5,84.6,91.2,83.6,91.2,82.3z
			 M92.5,82.3c0,1,0.2,1.7,0.6,2.2c0.4,0.5,1,0.7,1.6,0.7c0.6,0,1.2-0.2,1.6-0.7c0.4-0.5,0.6-1.2,0.6-2.2c0-0.9-0.2-1.7-0.6-2.2
			c-0.4-0.5-1-0.7-1.6-0.7c-0.7,0-1.2,0.2-1.6,0.7C92.8,80.6,92.5,81.3,92.5,82.3z"/>
		<path class="st0" d="M99.7,86.8l1.3,0.2c0.1,0.4,0.2,0.7,0.4,0.9c0.3,0.2,0.8,0.4,1.3,0.4c0.6,0,1.1-0.1,1.4-0.4
			c0.3-0.2,0.5-0.6,0.7-1c0.1-0.3,0.1-0.8,0.1-1.7c-0.6,0.7-1.3,1-2.1,1c-1.1,0-1.9-0.4-2.5-1.1c-0.6-0.8-0.9-1.7-0.9-2.7
			c0-0.7,0.1-1.4,0.4-2c0.3-0.6,0.6-1.1,1.2-1.4c0.5-0.3,1.1-0.5,1.8-0.5c0.9,0,1.7,0.4,2.2,1.1v-0.9h1.2v6.6c0,1.2-0.1,2-0.4,2.5
			c-0.2,0.5-0.6,0.9-1.2,1.2c-0.5,0.3-1.2,0.4-1.9,0.4c-0.9,0-1.7-0.2-2.2-0.6C99.9,88.3,99.7,87.6,99.7,86.8z M100.8,82.2
			c0,1,0.2,1.7,0.6,2.2c0.4,0.5,0.9,0.7,1.5,0.7c0.6,0,1.1-0.2,1.5-0.7c0.4-0.5,0.6-1.2,0.6-2.2c0-0.9-0.2-1.6-0.6-2.1
			c-0.4-0.5-0.9-0.7-1.5-0.7c-0.6,0-1.1,0.2-1.5,0.7C101,80.6,100.8,81.3,100.8,82.2z"/>
		<path class="st0" d="M108.1,89.1l-0.1-1.2c0.3,0.1,0.5,0.1,0.7,0.1c0.3,0,0.5,0,0.7-0.1c0.2-0.1,0.3-0.2,0.4-0.4
			c0.1-0.1,0.2-0.5,0.4-1c0-0.1,0.1-0.2,0.1-0.3l-2.9-7.7h1.4l1.6,4.4c0.2,0.6,0.4,1.2,0.6,1.8c0.1-0.6,0.3-1.2,0.5-1.8l1.6-4.5h1.3
			l-2.9,7.8c-0.3,0.8-0.6,1.4-0.7,1.7c-0.2,0.4-0.5,0.7-0.8,0.9c-0.3,0.2-0.7,0.3-1.1,0.3C108.7,89.3,108.4,89.2,108.1,89.1z"/>
		<path class="st0" d="M119.8,86.2V75.6h1.4l5.6,8.3v-8.3h1.3v10.6h-1.4l-5.6-8.3v8.3H119.8z"/>
		<path class="st0" d="M135.4,86.2V85c-0.6,0.9-1.4,1.3-2.4,1.3c-0.5,0-0.9-0.1-1.3-0.3c-0.4-0.2-0.7-0.4-0.9-0.7
			c-0.2-0.3-0.3-0.6-0.4-1c-0.1-0.3-0.1-0.7-0.1-1.2v-4.8h1.3v4.3c0,0.7,0,1.1,0.1,1.4c0.1,0.3,0.3,0.6,0.5,0.8
			c0.3,0.2,0.6,0.3,1,0.3c0.4,0,0.8-0.1,1.1-0.3c0.3-0.2,0.6-0.5,0.7-0.8c0.1-0.3,0.2-0.8,0.2-1.5v-4.1h1.3v7.7H135.4z"/>
		<path class="st0" d="M138.6,86.2v-7.7h1.2v1.2c0.3-0.5,0.6-0.9,0.8-1.1c0.3-0.2,0.5-0.3,0.8-0.3c0.4,0,0.9,0.1,1.3,0.4l-0.4,1.2
			c-0.3-0.2-0.6-0.3-1-0.3c-0.3,0-0.5,0.1-0.8,0.3c-0.2,0.2-0.4,0.4-0.5,0.7c-0.1,0.5-0.2,1-0.2,1.5v4H138.6z"/>
		<path class="st0" d="M143,83.9l1.3-0.2c0.1,0.5,0.3,0.9,0.6,1.2c0.3,0.3,0.8,0.4,1.4,0.4c0.6,0,1-0.1,1.3-0.4
			c0.3-0.2,0.4-0.5,0.4-0.9c0-0.3-0.1-0.5-0.4-0.7c-0.2-0.1-0.6-0.3-1.3-0.4c-1-0.2-1.6-0.5-2-0.6c-0.4-0.2-0.6-0.4-0.8-0.7
			c-0.2-0.3-0.3-0.7-0.3-1c0-0.3,0.1-0.7,0.2-1c0.2-0.3,0.4-0.5,0.6-0.7c0.2-0.1,0.5-0.3,0.8-0.4c0.3-0.1,0.7-0.2,1.1-0.2
			c0.6,0,1.1,0.1,1.6,0.3c0.5,0.2,0.8,0.4,1,0.7c0.2,0.3,0.4,0.7,0.4,1.2l-1.3,0.2c-0.1-0.4-0.2-0.7-0.5-0.9
			c-0.3-0.2-0.7-0.3-1.2-0.3c-0.6,0-1,0.1-1.3,0.3c-0.3,0.2-0.4,0.4-0.4,0.7c0,0.2,0.1,0.3,0.2,0.5c0.1,0.1,0.3,0.3,0.5,0.3
			c0.1,0,0.5,0.2,1.1,0.3c0.9,0.2,1.6,0.4,1.9,0.6c0.4,0.2,0.6,0.4,0.9,0.7s0.3,0.7,0.3,1.1c0,0.4-0.1,0.8-0.4,1.2
			c-0.3,0.4-0.6,0.7-1.1,0.9c-0.5,0.2-1,0.3-1.6,0.3c-1,0-1.8-0.2-2.3-0.6C143.5,85.3,143.2,84.7,143,83.9z"/>
		<path class="st0" d="M151,77.1v-1.5h1.3v1.5H151z M151,86.2v-7.7h1.3v7.7H151z"/>
		<path class="st0" d="M154.2,86.2v-7.7h1.2v1.1c0.6-0.8,1.4-1.3,2.4-1.3c0.5,0,0.9,0.1,1.3,0.2c0.4,0.2,0.7,0.4,0.9,0.7
			c0.2,0.3,0.3,0.6,0.4,1c0,0.2,0.1,0.7,0.1,1.3v4.7h-1.3v-4.7c0-0.5-0.1-0.9-0.2-1.2c-0.1-0.3-0.3-0.5-0.5-0.6
			c-0.3-0.2-0.6-0.2-0.9-0.2c-0.6,0-1,0.2-1.4,0.5c-0.4,0.4-0.6,1-0.6,2v4.2H154.2z"/>
		<path class="st0" d="M162.2,86.8l1.3,0.2c0.1,0.4,0.2,0.7,0.4,0.9c0.3,0.2,0.8,0.4,1.3,0.4c0.6,0,1.1-0.1,1.4-0.4
			c0.3-0.2,0.5-0.6,0.7-1c0.1-0.3,0.1-0.8,0.1-1.7c-0.6,0.7-1.3,1-2.1,1c-1.1,0-1.9-0.4-2.5-1.1c-0.6-0.8-0.9-1.7-0.9-2.7
			c0-0.7,0.1-1.4,0.4-2c0.3-0.6,0.6-1.1,1.2-1.4c0.5-0.3,1.1-0.5,1.8-0.5c0.9,0,1.7,0.4,2.2,1.1v-0.9h1.2v6.6c0,1.2-0.1,2-0.4,2.5
			c-0.2,0.5-0.6,0.9-1.2,1.2c-0.5,0.3-1.2,0.4-1.9,0.4c-0.9,0-1.7-0.2-2.2-0.6C162.5,88.3,162.2,87.6,162.2,86.8z M163.3,82.2
			c0,1,0.2,1.7,0.6,2.2c0.4,0.5,0.9,0.7,1.5,0.7c0.6,0,1.1-0.2,1.5-0.7c0.4-0.5,0.6-1.2,0.6-2.2c0-0.9-0.2-1.6-0.6-2.1
			c-0.4-0.5-0.9-0.7-1.5-0.7c-0.6,0-1.1,0.2-1.5,0.7C163.5,80.6,163.3,81.3,163.3,82.2z"/>
		<path class="st0" d="M174.5,82.8l1.3-0.1c0.1,0.5,0.2,1,0.4,1.3c0.2,0.3,0.6,0.6,1.1,0.8c0.5,0.2,1,0.3,1.6,0.3
			c0.5,0,1-0.1,1.4-0.2c0.4-0.2,0.7-0.4,0.9-0.7c0.2-0.3,0.3-0.6,0.3-0.9c0-0.3-0.1-0.6-0.3-0.9c-0.2-0.2-0.5-0.5-1-0.6
			c-0.3-0.1-0.9-0.3-1.9-0.5c-1-0.2-1.7-0.5-2-0.7c-0.5-0.3-0.9-0.6-1.1-1c-0.2-0.4-0.4-0.8-0.4-1.3c0-0.5,0.2-1,0.5-1.5
			c0.3-0.5,0.7-0.8,1.3-1.1c0.6-0.2,1.2-0.4,1.9-0.4c0.8,0,1.5,0.1,2.1,0.4c0.6,0.3,1.1,0.6,1.4,1.1c0.3,0.5,0.5,1,0.5,1.7l-1.3,0.1
			c-0.1-0.7-0.3-1.2-0.7-1.5c-0.4-0.3-1-0.5-1.8-0.5c-0.8,0-1.5,0.2-1.9,0.5c-0.4,0.3-0.6,0.7-0.6,1.1c0,0.4,0.1,0.7,0.4,0.9
			c0.3,0.2,1,0.5,2.1,0.8c1.1,0.3,1.9,0.5,2.3,0.7c0.6,0.3,1.1,0.6,1.4,1.1c0.3,0.4,0.4,0.9,0.4,1.5c0,0.6-0.2,1.1-0.5,1.6
			c-0.3,0.5-0.8,0.9-1.4,1.2c-0.6,0.3-1.3,0.4-2,0.4c-1,0-1.8-0.1-2.4-0.4c-0.6-0.3-1.2-0.7-1.5-1.3
			C174.7,84.1,174.5,83.5,174.5,82.8z"/>
		<path class="st0" d="M184.2,82.3c0-1.4,0.4-2.5,1.2-3.2c0.7-0.6,1.5-0.9,2.4-0.9c1.1,0,1.9,0.3,2.6,1c0.7,0.7,1,1.6,1,2.9
			c0,1-0.1,1.8-0.4,2.3c-0.3,0.6-0.7,1-1.3,1.3c-0.6,0.3-1.2,0.5-1.9,0.5c-1.1,0-1.9-0.3-2.6-1C184.6,84.6,184.2,83.6,184.2,82.3z
			 M185.6,82.3c0,1,0.2,1.7,0.6,2.2c0.4,0.5,1,0.7,1.6,0.7c0.6,0,1.2-0.2,1.6-0.7c0.4-0.5,0.6-1.2,0.6-2.2c0-0.9-0.2-1.7-0.6-2.2
			c-0.4-0.5-1-0.7-1.6-0.7c-0.7,0-1.2,0.2-1.6,0.7C185.8,80.6,185.6,81.3,185.6,82.3z"/>
		<path class="st0" d="M198,83.4l1.3,0.2c-0.1,0.9-0.5,1.6-1.1,2.1c-0.6,0.5-1.3,0.7-2.1,0.7c-1.1,0-1.9-0.3-2.5-1
			c-0.6-0.7-1-1.7-1-3c0-0.8,0.1-1.6,0.4-2.2c0.3-0.6,0.7-1.1,1.3-1.4c0.6-0.3,1.2-0.5,1.8-0.5c0.8,0,1.5,0.2,2,0.6
			c0.5,0.4,0.9,1,1,1.8l-1.3,0.2c-0.1-0.5-0.3-0.9-0.6-1.2c-0.3-0.3-0.7-0.4-1.1-0.4c-0.7,0-1.2,0.2-1.6,0.7
			c-0.4,0.5-0.6,1.2-0.6,2.2c0,1,0.2,1.8,0.6,2.2c0.4,0.5,0.9,0.7,1.5,0.7c0.5,0,0.9-0.2,1.3-0.5C197.6,84.5,197.9,84,198,83.4z"/>
		<path class="st0" d="M200.4,77.1v-1.5h1.3v1.5H200.4z M200.4,86.2v-7.7h1.3v7.7H200.4z"/>
		<path class="st0" d="M208.9,83.7l1.3,0.2c-0.2,0.8-0.6,1.4-1.2,1.8c-0.6,0.4-1.3,0.7-2.2,0.7c-1.1,0-2-0.3-2.7-1
			c-0.7-0.7-1-1.7-1-2.9c0-1.3,0.3-2.3,1-3c0.7-0.7,1.5-1.1,2.6-1.1c1,0,1.9,0.3,2.5,1c0.7,0.7,1,1.7,1,3c0,0.1,0,0.2,0,0.3h-5.7
			c0,0.8,0.3,1.5,0.7,1.9c0.4,0.4,1,0.7,1.6,0.7c0.5,0,0.9-0.1,1.2-0.4C208.4,84.6,208.7,84.2,208.9,83.7z M204.6,81.6h4.3
			c-0.1-0.6-0.2-1.1-0.5-1.5c-0.4-0.5-1-0.8-1.6-0.8c-0.6,0-1.1,0.2-1.5,0.6C204.9,80.4,204.7,80.9,204.6,81.6z"/>
		<path class="st0" d="M214.7,85l0.2,1.1c-0.4,0.1-0.7,0.1-1,0.1c-0.5,0-0.8-0.1-1.1-0.2c-0.3-0.1-0.4-0.3-0.5-0.6
			c-0.1-0.2-0.2-0.8-0.2-1.5v-4.4h-1v-1h1v-1.9l1.3-0.8v2.7h1.3v1h-1.3V84c0,0.4,0,0.6,0.1,0.7c0,0.1,0.1,0.2,0.2,0.3
			c0.1,0.1,0.3,0.1,0.4,0.1C214.3,85.1,214.5,85,214.7,85z"/>
		<path class="st0" d="M215.9,89.1l-0.1-1.2c0.3,0.1,0.5,0.1,0.7,0.1c0.3,0,0.5,0,0.7-0.1c0.2-0.1,0.3-0.2,0.4-0.4
			c0.1-0.1,0.2-0.5,0.4-1c0-0.1,0.1-0.2,0.1-0.3l-2.9-7.7h1.4l1.6,4.4c0.2,0.6,0.4,1.2,0.6,1.8c0.1-0.6,0.3-1.2,0.5-1.8l1.6-4.5h1.3
			l-2.9,7.8c-0.3,0.8-0.6,1.4-0.7,1.7c-0.2,0.4-0.5,0.7-0.8,0.9c-0.3,0.2-0.7,0.3-1.1,0.3C216.5,89.3,216.2,89.2,215.9,89.1z"/>
	</g>
	<g>
		<path class="st1" d="M58.1,2.4"/>
		<path class="st1" d="M58.2,2.5"/>
		<path class="st2" d="M49.2,26.6l14.4-8.2l3.1-1.9c0,0,0,0.1,0.1,0.1l2.4-1.4c-1.4-2.3-3-4.4-4.9-6.4c-1.8-1.8-3.7-3.3-5.8-4.6
			L47,23.7C47.6,24.2,48.6,25.3,49.2,26.6z"/>
		<path class="st2" d="M44.3,25.9l7.3-12.4c-1.4-0.8-2.8-1.4-4.4-1.8c-1.6-0.5-3.2-0.7-4.8-0.8v14.6C43,25.6,43.7,25.7,44.3,25.9z"
			/>
		<path class="st2" d="M50.5,31.1h20.4c0-2.5-0.4-5-1.1-7.5c-0.6-2.1-1.4-4.1-2.4-6L49.7,27.7C50,28.3,50.4,29.5,50.5,31.1z"/>
		<path class="st2" d="M66.8,16.4l-3.1,1.9l3.2-1.8C66.8,16.5,66.8,16.5,66.8,16.4z"/>
		<path class="st2" d="M33.7,46.4l-9.8,16.8l-5.2,9.4c-0.1,0-0.2-0.1-0.3-0.2l-3.6,6.1c3.9,2.3,7.8,4,12.4,5.3
			c4.7,1.3,9.4,2,14.1,2.1V47.7C38,48.2,34.6,46.8,33.7,46.4z"/>
		<path class="st2" d="M18.7,72.5l5.2-9.4l-5.4,9.2C18.5,72.4,18.6,72.5,18.7,72.5z"/>
		<path class="st2" d="M66.3,53.9c1.9-2,3.4-4.3,4.6-6.6l-8.3-4.2c-0.1,0.3-0.3,0.5-0.4,0.8l-9.8-6.1l-2.8-1.4
			c-0.8,1.5-1.9,2.6-2.4,3l12.4,20.1C62,58,64.3,56.1,66.3,53.9z"/>
		<path class="st2" d="M42.5,44.1v30.4c3.7,0,7.4-0.5,11-1.6c3.7-1,7.2-2.5,10.3-4.3L47.7,42.4C46,43.7,43.4,44,42.5,44.1z"/>
		<path class="st0" d="M35.7,23.1c-0.7,0.5-1.4,1-1.9,1.7c-0.5,0.5-0.8,1-1.2,1.6l7.6,3.9L35.7,23.1z"/>
		<path class="st0" d="M41.3,24.2c-0.5,0-1.1,0.1-1.6,0.2c-0.5,0.1-1,0.3-1.4,0.6l3,4.7V24.2z"/>
		<path class="st0" d="M33.8,28.3c-0.2,0.4-0.3,0.7-0.4,1.1c-0.2,0.5-0.2,1.1-0.3,1.6h6.1L33.8,28.3z"/>
		<path class="st2" d="M31.4,32.3H6.3c0.1,2.9,0.5,5.9,1.3,8.8c0.7,2.7,1.8,5.2,3.1,7.6l22-12.6C31.6,34.7,31.4,33,31.4,32.3z"/>
		<path class="st2" d="M11.3,49.8l1.1-0.7L11.3,49.8C11.3,49.7,11.3,49.7,11.3,49.8z"/>
		<path class="st2" d="M48.3,34.4L63.2,42c0.6-1.2,1.1-2.5,1.5-3.9c0.5-2,0.8-3.9,0.9-5.9H48.8C48.7,32.8,48.6,33.6,48.3,34.4z"/>
		<path class="st2" d="M62.3,44.1c0.2-0.3,0.2-0.8,0.3-1.1l-10.3-5.3L62.3,44.1z"/>
		<path class="st0" d="M44.3,25.9c-0.7-0.3-1.4-0.4-1.8-0.4v3.5L44.3,25.9z"/>
		<path class="st0" d="M50.5,31.1c-0.1-1.6-0.5-2.8-0.7-3.4l-5.9,3.4H50.5z"/>
		<path class="st0" d="M33.7,46.4c0.8,0.4,4.3,1.8,7.6,1.3V33.5L33.7,46.4z"/>
		<path class="st0" d="M30.3,38.8c0.5,0.8,1.9,2.8,4,4.1l5.7-9.6L30.3,38.8z"/>
		<path class="st0" d="M47.2,39.4c0.5-0.4,1.6-1.4,2.4-3l-6.2-3.2L47.2,39.4z"/>
		<path class="st0" d="M42.5,44.1c0.9-0.1,3.5-0.4,5.2-1.7L42.5,34V44.1z"/>
		<path class="st0" d="M31.4,32.3c0,0.8,0.3,2.4,1.3,3.8l6.6-3.8H31.4z"/>
		<path class="st0" d="M48.3,34.4c0.3-0.8,0.5-1.6,0.5-2.1h-4.6L48.3,34.4z"/>
		<path class="st0" d="M49.2,26.6c-0.6-1.4-1.6-2.5-2.2-2.9L43.3,30L49.2,26.6z"/>
		<path class="st3" d="M11.3,49.8l1.1-0.7L11.3,49.8C11.3,49.7,11.3,49.7,11.3,49.8z"/>
		<polygon class="st3" points="1.7,55.2 9.4,50.8 1.7,55.2 		"/>
		<path class="st2" d="M30.3,38.8l-18,10.3l-1.1,0.7c0,0,0,0,0,0l-1.9,1.1l-7.7,4.4c0,0,0,0,0,0l-0.3,0.2c2,3.4,4.5,6.6,7.4,9.6
			c2.7,2.7,5.5,4.9,8.6,6.8l17-28.9C32.2,41.7,30.8,39.6,30.3,38.8z"/>
	</g>
	<g>
		<g>
			<path class="st2" d="M142.7,53.8c0,7.3,0,9.5,8.2,9.5v1.6h-20.2v-1.6c8.2,0,8.2-2.2,8.2-9.5V14.7c-3.1-3.9-5.6-6-11.4-6V7.1h15.7
				l35.2,43.2h0.2V18.2c0-7.3,0-9.5-8.2-9.5V7.1h20.2v1.6c-8.2,0-8.2,2.2-8.2,9.5v47.7h-1.6l-37.9-46.4h-0.2V53.8z"/>
		</g>
		<path class="st2" d="M218.9,26.3h-1.5c-0.6-8.8-6.3-15.9-15.5-15.9c-4.8,0-9.6,3.6-9.6,8.6c0,11.6,30.3,13.6,30.3,30
			c0,8.7-6.9,16-17.5,16c-3.8,0-6.6-0.8-8.8-1.6c-2.3-0.8-3.9-1.5-5.9-1.5c-1.9,0-2.3,2.2-2.5,3.8h-1.5V46h1.5
			c1.3,13.4,11.5,15.7,16.4,15.7c5.6,0,11-2.9,11-9c0-12.7-29.4-14.2-29.4-30.8c0-8.5,7.7-14.8,16.4-14.8c3,0,5.5,0.8,7.5,1.6
			c2.1,0.8,3.7,1.6,4.8,1.6c2,0,2.5-1.5,2.8-3.2h1.5V26.3z"/>
		<g>
			<path class="st2" d="M76.4,35.9c0-15.6,11.4-29.1,29.2-29.1c17.7,0,29.2,13.6,29.2,29.1c0,15.6-11.4,29.1-29.2,29.1
				C87.9,65,76.4,51.4,76.4,35.9z M124.7,35.9c0-12.6-4.3-26.1-19.1-26.1c-14.8,0-19.1,13.6-19.1,26.1c0,12.5,4.3,26.1,19.1,26.1
				C120.4,62,124.7,48.4,124.7,35.9z"/>
		</g>
	</g>
	<path class="st1" d="M58.1,2.3"/>
	<path class="st1" d="M58.2,2.4"/>
	<g>
		<path class="st2" d="M223.5,12.4v-1.5h0.3c0.2,0,0.4,0,0.5,0.1c0.2,0.1,0.4,0.4,0.6,0.8l0.3,0.6h0.7l-0.4-0.7
			c-0.2-0.3-0.4-0.6-0.5-0.7c-0.1-0.1-0.2-0.1-0.3-0.2c0.3,0,0.6-0.1,0.7-0.3c0.2-0.2,0.3-0.4,0.3-0.7c0-0.2-0.1-0.4-0.2-0.5
			c-0.1-0.2-0.3-0.3-0.5-0.3c-0.2-0.1-0.5-0.1-0.9-0.1h-1.2v3.6H223.5z"/>
		<polyline class="st3" points="221,13.9 227.7,13.9 227.7,7.2 221,7.2 		"/>
		<path class="st4" d="M223.5,9.3h0.7c0.3,0,0.5,0,0.6,0.1c0.1,0,0.2,0.1,0.2,0.2c0.1,0.1,0.1,0.2,0.1,0.3c0,0.2-0.1,0.3-0.2,0.4
			c-0.1,0.1-0.4,0.2-0.7,0.2h-0.7V9.3z"/>
		<path class="st3" d="M225.7,8.1c0.4,0.2,0.8,0.6,1,1c0.2,0.4,0.4,0.9,0.4,1.4c0,0.5-0.1,0.9-0.4,1.4s-0.6,0.8-1,1
			c-0.4,0.2-0.9,0.4-1.4,0.4s-0.9-0.1-1.4-0.4c-0.4-0.2-0.8-0.6-1-1c-0.2-0.4-0.4-0.9-0.4-1.4c0-0.5,0.1-1,0.4-1.4
			c0.3-0.4,0.6-0.8,1-1c0.4-0.2,0.9-0.4,1.4-0.4C224.8,7.8,225.3,7.9,225.7,8.1"/>
		<path class="st5" d="M221,10.5c0,0.6,0.1,1.1,0.4,1.7c0.3,0.5,0.7,0.9,1.2,1.2c0.5,0.3,1.1,0.4,1.7,0.4s1.1-0.1,1.7-0.4
			c0.5-0.3,0.9-0.7,1.2-1.2c0.3-0.5,0.4-1.1,0.4-1.7c0-0.6-0.1-1.1-0.4-1.7c-0.3-0.5-0.7-0.9-1.2-1.2c-0.5-0.3-1.1-0.4-1.6-0.4
			s-1.1,0.1-1.6,0.4"/>
		<path class="st5" d="M222.7,7.6c-0.5,0.3-1,0.7-1.3,1.2c-0.3,0.5-0.5,1.1-0.5,1.7"/>
	</g>
</g>
</svg>
